<svg width="40" height="40" viewBox="0 0 40 40" fill="none" xmlns="http://www.w3.org/2000/svg">
<g clip-path="url(#clip0)">
<path d="M39.6666 0H9.66665C9.29849 0 8.99999 0.298499 8.99999 0.666665V10.6666H10.3333V1.33333H38.9999V37.9999C39.0063 38.3505 38.7358 38.6442 38.3859 38.6666C38.3286 38.6666 38.2713 38.6619 38.2139 38.6606C38.0959 38.6573 37.9779 38.6546 37.8619 38.6426C37.8519 38.6426 37.8426 38.6426 37.8326 38.6386C35.6553 38.4006 33.9354 36.6823 33.6953 34.5053C33.6953 34.4959 33.6919 34.4859 33.6906 34.4766C33.6744 34.3182 33.6664 34.1591 33.6666 33.9999V32.6666C33.6666 32.2984 33.3681 31.9999 32.9999 31.9999H10.3333V20H8.99999V31.9999H3.66667C3.2985 31.9999 3 32.2984 3 32.6666V33.9999C3.00367 37.3121 5.68783 39.9963 8.99999 39.9999H38.3999C39.4818 39.9716 40.3416 39.0821 40.3333 37.9999V0.666665C40.3333 0.298499 40.0348 0 39.6666 0ZM8.99999 38.6666C6.42391 38.6637 4.33625 36.576 4.33333 33.9999V33.3333H32.3333V33.9999C32.3342 34.2198 32.3469 34.4394 32.3713 34.6579C32.3773 34.7159 32.3886 34.7719 32.3966 34.8293C32.4186 34.9906 32.4453 35.1513 32.4806 35.3093C32.4926 35.3646 32.5079 35.4193 32.5219 35.4746C32.5626 35.6353 32.6086 35.7933 32.6619 35.9493C32.6773 35.9939 32.6933 36.0379 32.7099 36.0826C32.7706 36.2479 32.8393 36.4093 32.9146 36.5686C32.9306 36.6013 32.9453 36.6353 32.9613 36.6653C33.0449 36.8342 33.1366 36.9983 33.2366 37.1579C33.2499 37.1793 33.2619 37.2013 33.2753 37.2246C33.3839 37.3948 33.5013 37.5595 33.6266 37.7179L33.6479 37.7466C33.7934 37.9293 33.9493 38.1036 34.1146 38.2686C34.2582 38.4108 34.407 38.5442 34.5613 38.6686L8.99999 38.6666Z" fill="#4985FF"/>
<path d="M22 18.6667C22.1768 18.6667 22.3463 18.5963 22.4713 18.4713L25.1379 15.8047C25.3982 15.5443 25.3982 15.1223 25.1379 14.862L22.4713 12.1953C22.3463 12.0703 22.1768 12 22 12H3.33333C1.49241 12 0 13.4924 0 15.3333C0 17.1742 1.49241 18.6667 3.33333 18.6667H22ZM21.828 13.4373L23.7239 15.3333L21.828 17.2293L21.354 15.3333L21.828 13.4373ZM5.33332 13.3333H20.48L20.1466 14.6667H6.66665V16H20.1466L20.48 17.3333H5.33332V13.3333ZM1.33333 15.3333C1.33333 14.2287 2.22875 13.3333 3.33333 13.3333H3.99999V17.3333H3.33333C2.22875 17.3333 1.33333 16.4379 1.33333 15.3333Z" fill="#4985FF"/>
<path d="M15.3325 28.6666H35.3325C35.7007 28.6666 35.9992 28.3681 35.9992 27.9999V7.99999C35.9991 7.63183 35.7006 7.33341 35.3323 7.3335C35.1556 7.3335 34.9862 7.40375 34.8612 7.52866L14.8612 27.5286C14.6009 27.789 14.601 28.2111 14.8614 28.4714C14.9864 28.5964 15.1558 28.6666 15.3325 28.6666ZM34.6658 9.60932V11.3333H33.3325V12.6666H34.6658V14H33.3325V15.3333H34.6658V16.6666H33.3325V18H34.6658V19.3333H33.3325V20.6666H34.6658V22H33.3325V23.3333H34.6658V24.6666H33.3325V25.9999H34.6658V27.3333H33.3325V25.9999H31.9992V27.3333H30.6658V25.9999H29.3325V27.3333H27.9992V25.9999H26.6659V27.3333H25.3325V25.9999H23.9992V27.3333H22.6659V25.9999H21.3325V27.3333H19.9992V25.9999H18.6659V27.3333H16.9419L34.6658 9.60932Z" fill="#4985FF"/>
<path d="M24.9907 24.6667H31.3341C31.7022 24.6667 32.0007 24.3682 32.0007 24V17.6567C32.0007 17.2886 31.7022 16.9902 31.3339 16.9902C31.1572 16.9902 30.9877 17.0605 30.8627 17.1854L24.5194 23.5287C24.2591 23.7891 24.2592 24.2112 24.5196 24.4715C24.6446 24.5965 24.814 24.6667 24.9907 24.6667ZM30.6674 19.2667V23.3334H26.6007L30.6674 19.2667Z" fill="#4985FF"/>
<path d="M30.6673 4H17.334V5.33333H30.6673V4Z" fill="#4985FF"/>
<path d="M32.6673 6.6665H15.334V7.99983H32.6673V6.6665Z" fill="#4985FF"/>
<path d="M15.334 20.6665H11.334V21.9998H15.334V20.6665Z" fill="#4985FF"/>
<path d="M14.0006 23.3335H11.334V24.6668H14.0006V23.3335Z" fill="#4985FF"/>
</g>
<defs>
<clipPath id="clip0">
<rect width="40" height="40" fill="white"/>
</clipPath>
</defs>
</svg>
